<?xml version="1.0" standalone="no"?>
<!DOCTYPE svg PUBLIC "-//W3C//DTD SVG 20010904//EN"
 "http://www.w3.org/TR/2001/REC-SVG-20010904/DTD/svg10.dtd">
<svg version="1.0" xmlns="http://www.w3.org/2000/svg"
 width="1032.000000pt" height="1032.000000pt" viewBox="0 0 1032.000000 1032.000000"
 preserveAspectRatio="xMidYMid meet">
<metadata>
Created by potrace 1.14, written by Peter Selinger 2001-2017
</metadata>
<g transform="translate(0.000000,1032.000000) scale(0.100000,-0.100000)"
fill="#000000" stroke="none">
<path d="M6005 9420 c-3 -5 -2 -10 4 -10 5 0 13 5 16 10 3 6 2 10 -4 10 -5 0
-13 -4 -16 -10z"/>
<path d="M5845 9150 c3 -5 8 -10 11 -10 2 0 4 5 4 10 0 6 -5 10 -11 10 -5 0
-7 -4 -4 -10z"/>
<path d="M4390 8120 c0 -5 5 -10 11 -10 5 0 7 5 4 10 -3 6 -8 10 -11 10 -2 0
-4 -4 -4 -10z"/>
<path d="M1875 7982 c-12 -8 -14 -391 -2 -409 10 -15 31 -18 22 -3 -4 6 7 10
25 10 20 0 29 -4 25 -11 -4 -6 3 -5 14 3 31 19 39 1 36 -78 -1 -56 1 -64 17
-64 10 0 18 5 18 11 0 15 81 1 100 -17 12 -12 12 -18 2 -34 -7 -12 -8 -20 -2
-20 5 0 10 -10 10 -23 0 -23 0 -23 -135 -23 l-135 1 0 -55 c0 -31 -5 -61 -11
-67 -6 -6 -53 -8 -130 -5 l-120 5 3 -74 3 -74 60 0 60 0 3 -67 3 -68 64 0 65
0 0 -65 0 -65 130 0 130 0 0 -59 c0 -33 4 -62 9 -65 4 -3 63 -7 130 -8 135 -3
125 3 121 -81 -1 -23 3 -39 12 -41 11 -4 180 -15 231 -16 14 0 17 -10 17 -59
0 -70 2 -71 106 -71 42 0 84 -5 94 -10 12 -7 28 -7 44 0 26 9 26 9 27 -38 1
-26 1 -55 0 -64 -2 -16 9 -18 113 -18 82 0 116 -4 119 -12 4 -10 8 -9 16 2 7
11 11 -3 13 -50 l3 -65 133 -3 132 -3 0 -64 0 -64 68 -3 67 -3 3 -62 3 -63
194 0 194 0 3 -67 3 -68 95 -2 c52 -1 112 -2 133 -2 l37 -1 0 -65 0 -65 130 0
c116 0 131 2 136 18 3 9 10 25 15 36 7 12 7 16 0 12 -6 -4 -11 10 -13 36 l-3
42 -132 -3 -133 -2 0 71 0 71 -44 -6 c-75 -12 -86 -3 -86 66 0 40 -4 59 -12
60 -7 1 -37 1 -65 1 l-53 1 0 118 c0 87 3 119 12 119 9 0 8 4 -2 14 -9 9 -39
16 -77 17 -53 2 -63 5 -63 20 0 10 5 21 10 24 6 4 7 12 3 18 -13 20 -14 149
-2 164 9 10 8 13 -5 13 -9 0 -16 6 -16 14 0 12 -23 15 -111 18 -61 2 -114 -1
-120 -7 -6 -5 -14 -4 -21 3 -10 10 -10 15 0 21 17 10 17 21 2 31 -9 6 -9 13
-1 28 8 15 8 21 -1 24 -8 3 -8 9 0 25 9 16 9 22 0 25 -10 4 -10 10 -1 31 8 16
9 27 3 27 -6 0 -10 9 -10 20 0 17 7 20 51 20 31 0 48 -4 44 -10 -10 -16 11
-11 26 6 9 11 13 52 14 132 1 148 1 149 -36 144 -37 -5 -101 6 -94 17 11 18
15 91 5 91 -5 0 -10 6 -10 13 0 9 -41 12 -177 12 -98 0 -187 1 -198 3 -17 3
-20 10 -17 53 2 27 8 46 13 43 5 -3 9 -1 9 5 0 18 -45 25 -165 26 l-120 0 -5
65 -5 65 -57 0 c-50 1 -61 4 -57 18 0 1 1 29 2 62 l2 60 -49 -4 c-27 -2 -90 0
-140 4 l-91 7 2 41 c6 85 11 82 -137 79 l-130 -3 0 65 c0 62 -1 66 -26 72 -14
4 -64 4 -111 1 -119 -7 -123 -5 -123 55 0 28 4 47 9 43 6 -3 9 3 8 14 -1 16
-10 19 -72 19 -38 1 -75 -2 -80 -6z"/>
<path d="M1740 7845 c-7 -9 -11 -18 -8 -20 3 -3 11 1 18 10 7 9 11 18 8 20 -3
3 -11 -1 -18 -10z"/>
<path d="M2780 7830 c0 -5 5 -10 11 -10 5 0 7 5 4 10 -3 6 -8 10 -11 10 -2 0
-4 -4 -4 -10z"/>
<path d="M2890 7829 c0 -5 5 -7 10 -4 6 3 10 8 10 11 0 2 -4 4 -10 4 -5 0 -10
-5 -10 -11z"/>
<path d="M8745 7570 c3 -5 8 -10 11 -10 2 0 4 5 4 10 0 6 -5 10 -11 10 -5 0
-7 -4 -4 -10z"/>
<path d="M3690 7365 c-8 -9 -8 -15 -2 -15 12 0 26 19 19 26 -2 2 -10 -2 -17
-11z"/>
<path d="M3945 7300 c3 -5 8 -10 11 -10 2 0 4 5 4 10 0 6 -5 10 -11 10 -5 0
-7 -4 -4 -10z"/>
<path d="M7430 7299 c0 -5 5 -7 10 -4 6 3 10 8 10 11 0 2 -4 4 -10 4 -5 0 -10
-5 -10 -11z"/>
<path d="M7115 7040 c-3 -5 -2 -10 4 -10 5 0 13 5 16 10 3 6 2 10 -4 10 -5 0
-13 -4 -16 -10z"/>
<path d="M7165 7040 c3 -5 8 -10 11 -10 2 0 4 5 4 10 0 6 -5 10 -11 10 -5 0
-7 -4 -4 -10z"/>
<path d="M6880 6909 c0 -5 5 -7 10 -4 6 3 10 8 10 11 0 2 -4 4 -10 4 -5 0 -10
-5 -10 -11z"/>
<path d="M6635 6820 c-3 -5 -1 -10 4 -10 6 0 11 5 11 10 0 6 -2 10 -4 10 -3 0
-8 -4 -11 -10z"/>
<path d="M689 6534 c-5 -7 -8 -70 -7 -140 l3 -129 128 -3 c112 -2 127 -5 128
-20 1 -9 3 -26 4 -37 1 -11 2 -32 3 -47 l2 -28 130 0 130 0 0 -65 0 -65 130 0
129 0 3 -62 3 -63 65 -5 65 -5 -3 -41 c-2 -22 2 -52 7 -67 l10 -26 123 1 123
2 3 -67 3 -67 62 0 63 0 0 -387 c0 -220 -3 -391 -8 -394 -5 -3 -34 -4 -64 -2
l-54 4 -2 -38 c-1 -21 -2 -72 -3 -113 -3 -125 2 -115 -59 -118 l-54 -3 3 48
c2 26 -1 58 -6 71 -8 22 -14 24 -67 22 -31 -1 -90 -2 -129 -1 l-73 1 0 65 0
65 -65 0 -65 0 0 65 0 65 -69 0 -69 0 1 38 c0 20 7 45 16 56 15 17 14 18 -4
15 -15 -3 -19 1 -17 15 3 17 1 18 -12 7 -8 -7 -21 -9 -27 -5 -7 4 -59 7 -115
6 l-103 -1 -3 67 -3 67 -63 1 c-71 2 -76 -4 -70 -92 l3 -49 60 -1 60 0 6 -40
c4 -21 7 -77 7 -124 0 -47 5 -96 11 -110 5 -14 10 -19 10 -11 1 8 4 11 8 8 3
-4 12 -2 19 4 19 15 74 1 75 -19 1 -9 1 -65 1 -125 0 -120 -5 -114 87 -119
l45 -3 1 -122 2 -123 -64 0 -63 0 0 50 c0 39 3 50 16 50 14 0 14 3 4 15 -7 8
-24 15 -39 15 -43 0 -70 11 -65 25 4 10 -1 12 -15 8 -17 -4 -19 -8 -10 -19 9
-11 8 -14 -5 -14 -13 0 -16 -12 -16 -74 0 -41 5 -78 10 -81 6 -3 10 -1 10 5 0
7 8 9 20 5 11 -3 33 -7 50 -7 18 -1 30 -7 31 -15 5 -73 6 -112 7 -231 l2 -138
71 1 c42 1 75 7 82 15 9 10 9 12 -3 8 -14 -5 -16 19 -18 183 l-3 189 65 0 66
0 0 -61 c0 -63 16 -94 40 -79 7 4 58 8 114 8 l101 0 -3 -53 c-5 -69 9 -82 82
-80 63 2 60 6 57 -87 -2 -41 1 -48 17 -48 10 0 24 -6 31 -12 11 -10 13 -10 7
0 -5 8 2 12 24 12 18 0 29 -4 25 -10 -3 -5 -1 -10 4 -10 6 0 11 5 11 10 0 6 5
10 10 10 7 0 10 -42 8 -120 -2 -74 -7 -119 -13 -118 -5 2 -9 6 -7 11 1 4 -2 7
-8 7 -5 0 -10 -7 -10 -14 0 -11 -14 -16 -47 -18 l-48 -3 0 -57 c0 -31 -2 -59
-5 -61 -5 -6 -156 -11 -217 -8 l-33 1 0 65 0 66 -132 -3 -133 -3 0 -200 0
-200 50 -1 c28 -1 55 -2 62 -3 8 -1 13 -24 15 -63 l3 -63 62 -3 62 -3 3 -62 3
-62 133 -3 132 -3 0 -64 0 -65 65 0 65 0 0 -65 0 -65 65 0 65 0 0 -64 c0 -72
1 -73 77 -70 l52 2 3 -67 3 -66 133 -3 132 -3 0 -64 0 -65 65 0 65 0 0 -64 c0
-69 4 -74 58 -71 17 1 32 -3 32 -8 0 -5 15 -7 33 -4 18 3 52 2 74 -3 26 -4 46
-3 52 3 7 7 9 -15 8 -66 -1 -43 1 -77 6 -77 4 0 7 5 7 10 0 6 27 10 60 10 l60
0 1 -32 c0 -18 2 -46 2 -63 l2 -30 133 -3 134 -3 -7 -64 -7 -65 69 0 70 0 -1
-65 -1 -65 121 0 c68 0 129 -3 138 -6 14 -5 16 4 16 65 l0 71 195 0 195 0 0
-65 0 -64 63 -3 62 -3 1 -58 c1 -54 3 -60 32 -77 19 -12 32 -15 34 -8 2 6 24
11 48 12 34 1 44 -2 42 -13 -3 -12 0 -12 12 -2 8 7 33 14 56 16 l40 3 0 -65
c0 -42 5 -69 14 -79 17 -16 30 -19 21 -4 -4 6 15 10 49 10 l56 0 0 -55 c0 -37
-4 -55 -12 -56 -7 0 -68 0 -135 0 l-122 1 1 -43 c0 -23 0 -54 -1 -69 l-1 -28
-130 0 -130 0 0 -65 0 -65 -64 0 c-72 0 -74 -1 -72 -77 1 -29 -3 -54 -9 -56
-5 -2 -31 -3 -57 -1 -59 4 -69 -9 -69 -81 0 -55 -1 -56 -27 -54 -15 1 -44 1
-64 1 l-38 -2 0 -66 0 -65 -52 1 c-29 1 -59 1 -65 1 -9 -1 -13 -21 -13 -66 l0
-65 -65 0 c-36 0 -65 -3 -66 -7 -1 -13 -1 -127 0 -139 1 -7 8 -14 16 -18 8 -3
14 0 12 7 -1 8 16 13 51 14 l52 3 0 -65 c0 -45 4 -65 13 -66 6 -1 211 -2 455
-3 382 -1 444 -3 452 -16 11 -17 12 -13 14 79 1 52 3 55 31 63 16 4 132 7 257
6 194 -1 229 1 242 15 10 10 12 18 6 22 -14 9 -12 21 6 39 14 15 14 16 0 16
-19 0 -21 11 -4 28 8 8 53 12 135 12 l123 0 0 65 0 65 130 0 130 0 0 65 0 65
44 0 c26 0 46 -5 49 -12 4 -10 6 -10 6 0 1 6 8 12 16 12 15 0 19 23 16 100
l-1 36 68 -1 67 0 0 55 c1 30 4 61 8 68 9 14 87 17 87 2 0 -16 28 0 45 27 10
14 12 22 6 19 -7 -5 -11 7 -11 37 l0 44 48 -4 c42 -3 53 1 78 24 18 17 24 28
16 31 -7 2 -12 22 -12 48 0 48 -4 46 93 46 l37 0 0 72 0 73 -66 -3 c-50 -2
-63 0 -56 9 12 16 9 77 -6 102 -10 20 -23 20 -534 20 l-523 1 -3 37 c-2 29 3
43 22 62 31 31 92 35 99 7 4 -16 5 -16 6 1 1 14 11 17 71 17 l70 0 0 65 c0 59
2 65 21 65 11 0 17 -5 14 -10 -3 -5 -1 -10 4 -10 6 0 11 5 11 10 0 6 9 10 20
10 11 0 20 -5 20 -12 0 -9 3 -9 12 0 16 16 51 16 42 0 -6 -10 -4 -10 7 -1 16
15 53 17 44 3 -3 -6 -1 -10 4 -10 6 0 11 5 11 10 0 6 11 10 25 10 17 0 25 5
25 18 0 10 5 23 12 30 9 9 9 12 0 12 -7 0 -12 7 -12 15 0 8 5 15 12 15 9 0 9
3 0 12 -22 22 -13 27 55 30 l66 3 2 55 c1 30 3 57 4 60 2 10 50 10 56 -1 4 -6
11 -7 18 -1 7 6 21 11 31 13 17 4 20 13 22 63 2 62 15 81 45 66 9 -5 32 -7 50
-4 19 3 60 7 92 9 32 2 62 7 67 10 6 3 10 33 10 66 l0 59 65 0 65 0 0 65 0 65
65 0 65 0 0 70 0 69 65 -3 64 -2 3 130 3 131 63 3 62 3 0 -65 0 -66 197 -2
197 -3 1 -57 c1 -32 5 -61 9 -65 4 -4 34 -8 67 -8 l59 -1 0 68 0 68 135 0 135
0 0 65 0 65 195 0 195 0 0 65 0 64 68 3 67 3 3 62 3 62 62 3 62 3 3 60 c2 33
8 63 14 66 6 4 35 5 65 3 l53 -5 0 71 0 70 65 0 65 0 0 65 0 65 65 0 65 0 0
65 0 64 68 3 67 3 3 128 c2 91 6 127 15 128 7 1 35 2 62 3 l50 1 3 133 3 132
64 0 65 0 0 70 0 70 -71 0 -70 0 2 -61 c2 -39 -2 -63 -9 -68 -7 -4 -68 -6
-135 -4 l-122 3 0 -52 c0 -29 4 -59 8 -66 5 -7 3 -12 -5 -13 -144 -10 -140 -8
-138 -67 2 -26 2 -52 1 -57 0 -6 -50 -11 -127 -12 -69 -1 -128 -4 -132 -8 -4
-3 -6 -33 -6 -66 l0 -59 -122 1 c-67 1 -127 -2 -134 -6 -7 -4 -16 -2 -20 5 -6
9 -12 8 -26 -6 -12 -12 -32 -19 -56 -18 -30 1 -38 -3 -38 -17 0 -12 5 -16 15
-13 10 4 15 0 15 -11 0 -11 -5 -15 -15 -11 -10 4 -15 -1 -15 -15 0 -11 4 -18
9 -14 5 3 12 1 16 -4 3 -6 12 -8 19 -5 8 3 17 1 21 -5 4 -8 -28 -11 -102 -11
-59 -1 -136 -2 -170 -2 -34 -1 -66 1 -69 5 -4 4 -12 3 -18 -2 -6 -5 -32 -6
-58 -2 -45 7 -62 1 -38 -14 7 -4 7 -13 0 -24 -6 -12 -5 -22 2 -29 8 -8 8 -15
-1 -26 -8 -10 -9 -16 -1 -21 5 -3 10 -9 10 -13 0 -4 -148 -7 -330 -7 l-329 0
-3 65 c-3 75 14 67 -165 69 l-101 1 0 53 c0 28 -1 57 -1 63 -1 7 -22 12 -53
12 -82 1 -86 -2 -86 -56 0 -26 0 -53 -1 -59 -1 -9 -20 -13 -61 -13 -53 0 -60
2 -60 20 0 11 4 20 9 20 13 0 7 64 -8 80 -10 10 -32 14 -72 12 l-58 -2 -3 66
-3 66 -130 1 -130 2 -1 58 c-1 32 -4 60 -6 62 -2 3 -31 6 -64 8 l-59 3 -5 65
-5 64 -70 3 -70 3 3 -65 c4 -78 8 -75 -141 -72 -110 2 -139 -7 -121 -36 13
-20 12 -77 0 -87 -6 -4 -33 -7 -61 -7 -27 1 -56 -2 -62 -7 -8 -6 -13 -33 -13
-69 l0 -59 -57 2 c-52 3 -59 0 -70 -21 -6 -12 -10 -43 -9 -67 l3 -43 -59 0
-58 0 0 133 0 133 -65 -4 -65 -4 -2 198 -3 199 -65 3 -66 3 1 184 c0 101 4
187 8 191 11 11 71 12 78 1 4 -5 14 -5 27 2 17 9 22 22 24 74 l3 62 387 1 387
1 3 -131 3 -131 68 -3 67 -3 0 66 c0 36 3 65 8 66 4 1 33 2 65 3 57 1 84 17
69 41 -10 16 -11 69 0 82 5 6 34 11 66 10 l57 0 0 64 0 64 130 5 130 5 3 198
2 197 65 0 65 0 0 65 0 65 65 0 65 0 0 65 0 65 65 0 65 0 0 73 0 72 -720 -1
c-397 -1 -724 -5 -728 -8 -3 -4 -7 -31 -8 -59 -1 -29 -2 -55 -3 -59 0 -5 -27
-8 -60 -8 l-59 0 -6 -34 c-6 -31 -7 -80 -10 -389 l-1 -108 -65 3 -65 3 2 -67
2 -67 -132 -3 -131 -3 -1 -57 c0 -31 -3 -60 -7 -64 -7 -6 -197 -8 -544 -5
l-101 1 1 53 c3 76 2 77 -70 77 l-64 0 0 38 c0 20 4 43 9 51 6 9 4 19 -5 29
-12 11 -54 15 -206 16 l-191 1 -1 65 -1 65 -129 -4 c-115 -3 -128 -1 -123 13
4 9 2 16 -3 16 -6 0 -10 11 -10 25 0 14 4 25 9 25 5 0 7 9 4 21 -3 12 -1 24 5
28 5 3 -82 6 -195 6 -113 0 -207 4 -210 9 -3 5 -7 32 -8 60 -1 28 -3 54 -4 59
0 4 -32 7 -69 7 l-69 0 0 -172 c-1 -95 -2 -186 -2 -201 l-1 -29 -65 4 -65 3 0
-132 0 -133 -60 0 -60 0 0 371 c0 244 3 368 10 364 15 -9 12 2 -6 30 -14 22
-24 25 -75 25 l-59 0 0 35 c0 19 5 35 10 35 6 0 10 5 10 11 0 5 -4 8 -9 4 -5
-3 -11 5 -13 17 -3 21 -10 24 -67 28 l-65 5 -1 33 c-1 21 4 36 14 42 10 6 11
10 4 10 -7 0 -13 6 -13 14 0 8 -6 18 -12 23 -12 7 -26 8 -93 12 -18 1 -21 8
-20 54 0 28 3 57 7 62 4 6 -30 10 -95 11 -140 2 -186 5 -185 13 0 3 0 31 -1
62 -1 46 -4 56 -18 56 -10 -1 -39 0 -65 1 l-48 2 0 65 0 65 -71 0 c-68 0 -70
1 -63 23 8 24 8 50 -1 85 -5 20 -11 22 -88 23 -45 1 -103 1 -129 0 l-48 -1 0
66 c0 48 -4 66 -15 70 -29 12 -236 9 -246 -2z m2371 -1530 l0 -64 130 0 130 0
0 -65 0 -65 78 -1 c42 0 101 -1 131 -2 l54 -2 1 -65 1 -65 55 0 c30 0 60 -3
66 -7 9 -6 11 -70 2 -109 -2 -11 12 -15 69 -17 l72 -3 -5 -43 c-4 -25 -1 -52
5 -65 11 -20 19 -21 131 -21 73 0 120 -4 120 -10 0 -5 5 -10 10 -10 6 0 10 15
10 33 0 19 3 37 8 41 11 12 10 60 -2 68 -6 4 0 8 14 8 15 0 32 -6 38 -12 10
-10 15 -10 21 1 5 7 17 11 27 9 18 -3 19 -15 18 -201 0 -135 3 -197 10 -198 6
-1 34 -2 61 -3 l50 -1 3 -187 2 -187 -62 -3 -63 -3 -2 -55 c-1 -30 -2 -58 -2
-62 -1 -5 -61 -8 -133 -8 l-133 0 3 -65 4 -65 -29 -1 c-108 -5 -191 -4 -208 2
-16 5 -20 16 -21 60 -1 30 -2 58 -3 62 0 4 -81 7 -178 7 -98 0 -186 -1 -195 0
-15 0 -18 9 -18 56 0 41 3 53 13 48 6 -4 5 1 -5 11 -14 15 -36 18 -145 19
l-128 1 -1 50 c-1 28 -2 56 -3 63 -1 9 -31 12 -115 12 -63 0 -121 3 -130 6
-12 4 -16 20 -16 56 0 27 4 47 9 44 4 -3 16 3 26 14 10 11 13 20 7 20 -6 0
-14 -5 -17 -10 -4 -6 -12 -7 -18 -3 -7 4 -32 8 -57 9 -88 3 -80 -10 -80 129 0
77 4 125 10 125 6 0 10 5 10 11 0 5 -5 7 -12 3 -12 -8 -130 -6 -138 2 -2 3 2
9 9 13 9 6 10 11 2 15 -6 4 -11 16 -11 27 0 14 4 18 13 13 7 -5 7 -1 -2 10
-12 14 -12 22 -3 37 7 11 8 19 2 19 -5 0 -10 9 -10 20 0 11 5 20 11 20 8 0 8
4 2 13 -6 6 -13 22 -16 35 -4 19 -1 22 23 22 16 0 32 -4 35 -10 4 -6 12 -6 23
-1 9 5 25 12 35 15 15 5 17 23 17 196 0 116 4 189 9 185 5 -3 12 -1 16 5 3 5
15 10 26 10 11 0 17 -4 14 -10 -9 -14 9 -12 23 2 10 10 15 10 21 0 13 -21 21
10 21 81 l0 62 130 -3 130 -3 0 -65z m-1930 42 c0 -3 -4 -8 -10 -11 -5 -3 -10
-1 -10 4 0 6 5 11 10 11 6 0 10 -2 10 -4z m6540 -1351 c0 -8 -4 -15 -10 -15
-5 0 -10 7 -10 15 0 8 5 15 10 15 6 0 10 -7 10 -15z m0 -61 c0 -2 -9 -4 -21
-4 -11 0 -18 4 -14 10 5 8 35 3 35 -6z m-410 -68 c0 -3 -4 -8 -10 -11 -5 -3
-10 -1 -10 4 0 6 5 11 10 11 6 0 10 -2 10 -4z m-55 -56 c3 -5 1 -10 -4 -10 -6
0 -11 5 -11 10 0 6 2 10 4 10 3 0 8 -4 11 -10z m-5210 -101 c0 -73 1 -76 20
-65 11 7 31 11 45 10 14 -1 35 -2 48 -3 21 -1 22 -4 22 -106 0 -85 -3 -105
-14 -105 -8 0 -18 -5 -22 -11 -4 -8 0 -9 15 -4 15 5 21 2 21 -10 0 -13 -10
-15 -57 -13 l-58 3 -3 53 c-2 36 0 52 7 47 7 -3 8 0 5 9 -3 9 -9 16 -13 17 -3
0 -35 1 -71 2 l-65 2 2 47 c1 26 7 57 13 69 7 13 8 19 2 15 -6 -3 -14 -1 -18
5 -3 6 -9 7 -13 2 -3 -5 -30 -7 -59 -5 l-52 4 4 49 c3 27 0 49 -5 49 -5 0 -9
4 -9 8 0 5 57 9 128 8 l127 -1 0 -76z m3173 16 c2 -33 6 -62 9 -65 2 -3 30 -5
61 -5 l57 0 3 -64 c3 -54 1 -63 -12 -58 -11 4 -16 1 -16 -12 0 -10 7 -18 15
-18 8 0 15 4 15 9 0 4 16 8 35 8 19 0 35 -4 35 -9 0 -4 14 -7 30 -5 l30 4 0
-255 0 -255 23 -4 c12 -3 33 -5 47 -4 71 2 67 8 64 -104 -2 -57 -3 -113 -3
-125 l-1 -23 -194 0 -194 0 -5 -27 c-3 -14 -4 -42 -2 -62 l3 -36 -459 0 -459
0 0 39 c0 32 3 37 17 32 16 -6 16 -6 0 12 -9 10 -17 24 -17 30 0 9 -37 12
-130 12 l-130 0 0 105 c0 66 4 105 10 105 7 0 7 6 0 20 -12 23 -13 22 66 22
39 0 53 4 62 19 8 12 8 19 2 19 -6 0 -10 72 -10 201 0 133 3 198 10 194 6 -4
7 -11 4 -17 -4 -5 4 -4 17 3 20 11 21 14 7 17 -10 2 -18 10 -18 18 0 8 -5 13
-11 11 -6 -1 -14 4 -16 11 -3 6 2 12 11 12 9 0 15 6 13 13 -1 6 5 12 13 12 8
0 14 -6 12 -13 -1 -8 3 -12 10 -9 7 2 12 12 12 21 -2 13 8 16 50 16 28 0 47
-4 41 -8 -5 -4 -11 -15 -12 -25 -1 -18 0 -18 20 1 18 15 38 19 104 20 45 0 90
3 101 6 17 6 19 0 21 -51 1 -32 6 -62 10 -66 5 -4 35 -7 67 -5 l59 3 5 56 5
56 45 0 c75 0 80 6 80 82 l0 66 132 0 133 0 1 50 c1 28 2 57 3 66 1 14 12 17
58 15 l57 -1 4 -60z m-2124 -76 c2 -2 8 -59 12 -126 5 -93 4 -126 -6 -138 -8
-9 -8 -15 -2 -15 6 0 14 5 17 10 10 15 242 13 247 -2 3 -7 4 -41 4 -75 -2 -59
5 -76 19 -53 8 13 71 13 96 0 15 -9 19 -22 19 -65 l0 -55 93 -1 c50 -1 108 -2
128 -2 l36 0 0 -193 -1 -194 -63 0 -63 0 2 -123 c1 -68 -2 -128 -5 -133 -5 -9
-40 -10 -104 -5 -9 1 -13 22 -13 72 0 62 -2 70 -15 59 -10 -8 -19 -9 -27 -3
-17 13 -56 14 -63 2 -14 -21 -25 5 -25 57 0 30 4 53 8 50 4 -2 8 3 9 12 1 15
-8 17 -73 14 l-74 -4 0 61 c0 34 -5 63 -11 67 -6 4 -67 7 -135 7 l-124 0 0 63
0 64 -42 1 c-75 2 -182 6 -200 8 -15 1 -18 11 -18 52 0 31 4 48 10 44 6 -3 10
-2 10 4 0 14 -37 24 -93 26 -26 1 -50 4 -53 8 -8 7 -17 484 -10 502 4 11 50
13 255 11 138 -1 253 -4 255 -7z m996 -153 c0 -3 -4 -8 -10 -11 -5 -3 -10 -1
-10 4 0 6 5 11 10 11 6 0 10 -2 10 -4z m-37 -46 c-7 -28 -13 -25 -13 6 0 14 4
23 9 20 5 -3 7 -15 4 -26z m82 -10 c3 -5 1 -10 -4 -10 -6 0 -11 5 -11 10 0 6
2 10 4 10 3 0 8 -4 11 -10z m845 -1510 c0 -5 -4 -10 -10 -10 -5 0 -10 5 -10
10 0 6 5 10 10 10 6 0 10 -4 10 -10z m-32 -185 l3 -60 -143 2 c-79 1 -164 3
-190 3 l-48 0 0 54 c0 30 5 56 11 58 5 2 90 3 187 3 l177 0 3 -60z"/>
<path d="M4135 4420 c3 -5 8 -10 11 -10 2 0 4 5 4 10 0 6 -5 10 -11 10 -5 0
-7 -4 -4 -10z"/>
<path d="M3990 4146 c0 -8 4 -17 9 -21 6 -3 9 4 8 15 -1 23 -17 28 -17 6z"/>
<path d="M3876 4119 c-11 -10 -15 -19 -9 -19 5 0 18 9 28 20 23 26 6 25 -19
-1z"/>
<path d="M4210 4129 c0 -5 5 -7 10 -4 6 3 10 8 10 11 0 2 -4 4 -10 4 -5 0 -10
-5 -10 -11z"/>
<path d="M4215 3650 c3 -5 8 -10 11 -10 2 0 4 5 4 10 0 6 -5 10 -11 10 -5 0
-7 -4 -4 -10z"/>
<path d="M4213 3189 c-2 -20 -1 -20 18 -4 24 22 24 25 1 25 -11 0 -18 -8 -19
-21z"/>
<path d="M5323 3187 c-2 -18 -1 -18 18 -2 23 22 24 24 1 22 -10 0 -19 -9 -19
-20z"/>
<path d="M4215 3120 c3 -5 8 -10 11 -10 2 0 4 5 4 10 0 6 -5 10 -11 10 -5 0
-7 -4 -4 -10z"/>
<path d="M4256 3122 c-2 -4 4 -9 15 -9 11 -1 17 2 14 8 -7 11 -22 12 -29 1z"/>
<path d="M4310 3115 c0 -8 4 -15 8 -15 5 0 9 7 9 15 0 8 -4 15 -9 15 -4 0 -8
-7 -8 -15z"/>
<path d="M2847 3193 c-4 -3 -7 -11 -7 -17 0 -6 5 -5 12 2 6 6 9 14 7 17 -3 3
-9 2 -12 -2z"/>
<path d="M3423 2669 c1 -10 6 -18 11 -16 16 5 18 24 2 30 -10 4 -14 0 -13 -14z"/>
<path d="M3435 2620 c-3 -5 -1 -10 4 -10 6 0 11 5 11 10 0 6 -2 10 -4 10 -3 0
-8 -4 -11 -10z"/>
<path d="M5835 6390 c-10 -11 -15 -20 -11 -20 11 0 39 30 34 36 -3 2 -13 -5
-23 -16z"/>
<path d="M3885 6290 c-3 -5 -2 -10 4 -10 5 0 13 5 16 10 3 6 2 10 -4 10 -5 0
-13 -4 -16 -10z"/>
<path d="M9260 6138 l0 -133 -62 0 -63 0 -5 -65 -5 -65 -130 1 -130 1 1 -456
c1 -251 2 -462 3 -468 1 -9 21 -13 66 -13 l65 0 0 55 c0 30 0 58 0 63 0 4 60
9 132 12 l133 5 3 263 2 262 65 0 65 0 0 335 0 335 -70 0 -70 0 0 -132z"/>
<path d="M1596 6028 c3 -4 12 -8 20 -8 8 0 14 4 14 8 0 4 -9 8 -19 8 -11 0
-17 -4 -15 -8z"/>
<path d="M3351 6031 c-8 -5 -9 -11 -3 -15 5 -3 15 1 22 9 14 16 3 20 -19 6z"/>
<path d="M9230 6030 c0 -5 5 -10 11 -10 5 0 7 5 4 10 -3 6 -8 10 -11 10 -2 0
-4 -4 -4 -10z"/>
<path d="M2040 5979 c0 -5 5 -7 10 -4 6 3 10 8 10 11 0 2 -4 4 -10 4 -5 0 -10
-5 -10 -11z"/>
<path d="M8700 5720 c0 -5 5 -10 10 -10 6 0 10 5 10 10 0 6 -4 10 -10 10 -5 0
-10 -4 -10 -10z"/>
<path d="M8745 5720 c3 -5 11 -10 16 -10 6 0 7 5 4 10 -3 6 -11 10 -16 10 -6
0 -7 -4 -4 -10z"/>
<path d="M1830 5568 c0 -12 3 -18 7 -14 11 10 12 36 2 36 -5 0 -9 -10 -9 -22z"/>
<path d="M2566 5495 c-11 -8 -17 -17 -14 -20 2 -3 13 4 23 15 21 23 18 25 -9
5z"/>
<path d="M7545 5460 c-3 -5 -1 -10 4 -10 6 0 11 5 11 10 0 6 -2 10 -4 10 -3 0
-8 -4 -11 -10z"/>
<path d="M970 5206 c0 -2 8 -10 18 -17 15 -13 16 -12 3 4 -13 16 -21 21 -21
13z"/>
<path d="M3520 5190 c0 -5 5 -10 11 -10 5 0 7 5 4 10 -3 6 -8 10 -11 10 -2 0
-4 -4 -4 -10z"/>
<path d="M3680 5190 c0 -5 7 -7 15 -4 8 4 15 8 15 10 0 2 -7 4 -15 4 -8 0 -15
-4 -15 -10z"/>
<path d="M6905 5190 c-3 -5 -1 -10 4 -10 6 0 11 5 11 10 0 6 -2 10 -4 10 -3 0
-8 -4 -11 -10z"/>
<path d="M7060 5190 c0 -5 5 -10 11 -10 5 0 7 5 4 10 -3 6 -8 10 -11 10 -2 0
-4 -4 -4 -10z"/>
<path d="M5583 4777 c4 -13 65 -19 72 -7 3 5 12 7 20 3 8 -3 15 -1 15 5 0 5
-25 10 -56 10 -36 0 -54 -3 -51 -11z"/>
<path d="M4530 4769 c0 -5 5 -7 10 -4 6 3 10 8 10 11 0 2 -4 4 -10 4 -5 0 -10
-5 -10 -11z"/>
<path d="M4585 4770 c-3 -5 -1 -10 4 -10 6 0 11 5 11 10 0 6 -2 10 -4 10 -3 0
-8 -4 -11 -10z"/>
<path d="M4635 4770 c-3 -5 -1 -10 4 -10 6 0 11 5 11 10 0 6 -2 10 -4 10 -3 0
-8 -4 -11 -10z"/>
<path d="M4685 4770 c-3 -5 -2 -10 4 -10 5 0 13 5 16 10 3 6 2 10 -4 10 -5 0
-13 -4 -16 -10z"/>
<path d="M5265 4770 c-3 -5 -1 -10 4 -10 6 0 11 5 11 10 0 6 -2 10 -4 10 -3 0
-8 -4 -11 -10z"/>
<path d="M5590 4725 c0 -8 6 -15 13 -15 8 0 14 7 14 15 0 8 -6 15 -14 15 -7 0
-13 -7 -13 -15z"/>
<path d="M5640 4725 c0 -8 7 -15 15 -15 8 0 15 7 15 15 0 8 -7 15 -15 15 -8 0
-15 -7 -15 -15z"/>
<path d="M6375 4660 c3 -5 8 -10 11 -10 2 0 4 5 4 10 0 6 -5 10 -11 10 -5 0
-7 -4 -4 -10z"/>
<path d="M4410 4649 c0 -5 5 -7 10 -4 6 3 10 8 10 11 0 2 -4 4 -10 4 -5 0 -10
-5 -10 -11z"/>
<path d="M4415 4550 c-3 -5 -1 -10 4 -10 6 0 11 5 11 10 0 6 -2 10 -4 10 -3 0
-8 -4 -11 -10z"/>
<path d="M5270 4508 c0 -20 1 -21 20 -3 11 10 20 20 20 22 0 1 -9 3 -20 3 -14
0 -20 -7 -20 -22z"/>
<path d="M4417 4503 c-4 -3 -7 -11 -7 -17 0 -6 5 -5 12 2 6 6 9 14 7 17 -3 3
-9 2 -12 -2z"/>
<path d="M4410 4439 c0 -5 5 -7 10 -4 6 3 10 8 10 11 0 2 -4 4 -10 4 -5 0 -10
-5 -10 -11z"/>
<path d="M4415 4390 c-3 -5 -1 -10 4 -10 6 0 11 5 11 10 0 6 -2 10 -4 10 -3 0
-8 -4 -11 -10z"/>
<path d="M4415 4340 c-3 -5 -1 -10 4 -10 6 0 11 5 11 10 0 6 -2 10 -4 10 -3 0
-8 -4 -11 -10z"/>
<path d="M950 4211 c0 -12 5 -21 10 -21 6 0 10 6 10 14 0 8 -4 18 -10 21 -5 3
-10 -3 -10 -14z"/>
<path d="M8170 3980 c0 -5 5 -10 11 -10 5 0 7 5 4 10 -3 6 -8 10 -11 10 -2 0
-4 -4 -4 -10z"/>
<path d="M1788 3653 c7 -3 16 -2 19 1 4 3 -2 6 -13 5 -11 0 -14 -3 -6 -6z"/>
<path d="M4680 3649 c0 -5 5 -7 10 -4 6 3 10 8 10 11 0 2 -4 4 -10 4 -5 0 -10
-5 -10 -11z"/>
<path d="M7305 3650 c3 -5 8 -10 11 -10 2 0 4 5 4 10 0 6 -5 10 -11 10 -5 0
-7 -4 -4 -10z"/>
<path d="M6510 3633 c0 -13 29 -38 35 -31 3 3 -4 13 -15 23 -11 10 -20 13 -20
8z"/>
<path d="M5735 2130 c3 -5 8 -10 11 -10 2 0 4 5 4 10 0 6 -5 10 -11 10 -5 0
-7 -4 -4 -10z"/>
<path d="M2405 2020 c3 -5 11 -10 16 -10 6 0 7 5 4 10 -3 6 -11 10 -16 10 -6
0 -7 -4 -4 -10z"/>
<path d="M3150 1864 c0 -8 5 -12 10 -9 6 4 8 11 5 16 -9 14 -15 11 -15 -7z"/>
<path d="M5530 1859 c0 -5 5 -7 10 -4 6 3 10 8 10 11 0 2 -4 4 -10 4 -5 0 -10
-5 -10 -11z"/>
<path d="M3955 1610 c-10 -11 -13 -20 -8 -20 13 0 38 29 31 35 -3 3 -13 -4
-23 -15z"/>
<path d="M5175 1610 c-10 -11 -15 -20 -11 -20 11 0 39 30 34 36 -3 2 -13 -5
-23 -16z"/>
<path d="M3326 1607 c-15 -11 -12 -13 28 -13 31 0 46 5 46 13 0 17 -51 17 -74
0z"/>
<path d="M3420 1605 c0 -9 6 -12 15 -9 8 4 15 10 15 15 0 5 -7 9 -15 9 -8 0
-15 -7 -15 -15z"/>
<path d="M7686 1511 c-3 -5 0 -13 7 -19 10 -8 13 -6 13 9 0 20 -11 25 -20 10z"/>
<path d="M6320 1489 c0 -5 5 -7 10 -4 6 3 10 8 10 11 0 2 -4 4 -10 4 -5 0 -10
-5 -10 -11z"/>
<path d="M7540 1489 c0 -5 5 -7 10 -4 6 3 10 8 10 11 0 2 -4 4 -10 4 -5 0 -10
-5 -10 -11z"/>
<path d="M3940 1070 c0 -5 5 -10 10 -10 6 0 10 5 10 10 0 6 -4 10 -10 10 -5 0
-10 -4 -10 -10z"/>
<path d="M2676 745 c-9 -26 -7 -32 5 -12 6 10 9 21 6 23 -2 3 -7 -2 -11 -11z"/>
<path d="M5200 552 c0 -12 19 -26 26 -19 2 2 -2 10 -11 17 -9 8 -15 8 -15 2z"/>
<path d="M4415 280 c3 -5 10 -10 16 -10 5 0 9 5 9 10 0 6 -7 10 -16 10 -8 0
-12 -4 -9 -10z"/>
<path d="M4475 280 c-3 -5 -2 -10 4 -10 5 0 13 5 16 10 3 6 2 10 -4 10 -5 0
-13 -4 -16 -10z"/>
<path d="M4895 280 c-3 -5 -1 -10 4 -10 6 0 11 5 11 10 0 6 -2 10 -4 10 -3 0
-8 -4 -11 -10z"/>
<path d="M4410 215 c-7 -9 -11 -18 -8 -20 3 -3 11 1 18 10 7 9 11 18 8 20 -3
3 -11 -1 -18 -10z"/>
</g>
</svg>
